<svg width="33" height="32" fill="none" xmlns="http://www.w3.org/2000/svg"><g clip-path="url(#clip0)" fill="#191919"><path d="M2.528 2.667c0-.491.398-.89.889-.89H12.1A.889.889 0 0012.1 0H3.417A2.667 2.667 0 00.75 2.667v22.222a2.667 2.667 0 002.667 2.667h26.666a2.667 2.667 0 002.667-2.667V12.606a.889.889 0 10-1.778 0V24.89c0 .49-.398.889-.889.889H3.417a.889.889 0 01-.89-.89V2.668z"/><path d="M18.81 9.556a.889.889 0 01.065-1.255c1.442-1.295 3.267-2 5.142-1.956 1.753.04 3.459.744 4.81 1.957a.89.89 0 01.073 1.256.888.888 0 01-1.255.065c-1.053-.945-2.356-1.47-3.66-1.5-1.395-.034-2.79.49-3.919 1.504a.89.89 0 01-1.255-.07zM21.357 11.946a.888.888 0 00-.07 1.255.89.89 0 001.255.078c.374-.332.82-.491 1.252-.478.404.012.82.177 1.163.489a.888.888 0 001.255-.058.89.89 0 00-.067-1.256 3.614 3.614 0 00-2.31-.953 3.573 3.573 0 00-2.478.923zM16.113 5.738a.889.889 0 01.017-1.257c2.177-2.111 4.97-3.28 7.871-3.253 2.772.025 5.455 1.15 7.561 3.14a.89.89 0 11-1.219 1.29c-1.8-1.7-4.06-2.632-6.354-2.652-2.402-.022-4.754.943-6.62 2.752a.889.889 0 01-1.256-.02zM10.528 30.222a.889.889 0 000 1.778h12.444a.889.889 0 000-1.778H10.528z"/></g><defs><clipPath id="clip0"><path fill="#fff" transform="translate(.75)" d="M0 0h32v32H0z"/></clipPath></defs></svg>