<svg xmlns="http://www.w3.org/2000/svg" width="33" height="32" fill="none"><path fill="#191919" fill-rule="evenodd" d="M3.25 0a3 3 0 0 0-3 3v21a3 3 0 0 0 3 3h26a3 3 0 0 0 3-3V3a3 3 0 0 0-3-3h-26Zm-1 3a1 1 0 0 1 1-1h26a1 1 0 0 1 1 1v21a1 1 0 0 1-1 1h-26a1 1 0 0 1-1-1V3Zm7 28a1 1 0 0 0 1 1h12a1 1 0 1 0 0-2h-12a1 1 0 0 0-1 1Z" clip-rule="evenodd"/><path fill="#191919" d="M21.032 8.975a.528.528 0 0 0-.597.039l-.99.858c-.156.135-.143.34.026.46 0 0 1.53 1.059 1.53 3.34 0 2.162-1.613 3.409-1.613 3.409a.294.294 0 0 0-.013.473l.983.844a.537.537 0 0 0 .599.042s2.31-1.486 2.31-4.76c0-3.252-2.235-4.705-2.235-4.705Z"/><path fill="#191919" fill-rule="evenodd" d="M12.242 14.728s-.275-.026-.275.197c0 1.26.936 2.158 2.407 2.158 1.091 0 1.557-.264 2.217-.76.154-.115.318-.223.443-.087.087.093 1.245 1.166 1.245 1.166.145.137.106.3-.05.43-.154.132-1.886 1.481-3.877 1.481-2.603 0-5.102-1.136-5.102-5.416 0-3.45 1.948-5.397 4.806-5.397 3.07 0 4.806 2.15 4.806 5.051v.734c0 .3-.242.443-.442.443h-6.178Zm3.656-2.941c-.296-.628-.91-1.097-1.842-1.097-.931 0-1.545.469-1.841 1.097-.17.385-.234.67-.255 1.135h4.192c-.021-.465-.085-.75-.254-1.136Z" clip-rule="evenodd"/></svg>