<svg version="1.2" xmlns="http://www.w3.org/2000/svg" viewBox="0 0 33 32" width="33" height="32">
	<title>internethogaractive-svg</title>
	<style>
		.s0 { fill: #034a8c } 
	</style>
	<path id="Layer" class="s0" d="m12.9 13.8q-0.2 0.2-0.3 0.6 0 0.4 0.2 0.6 0.2 0.3 0.6 0.4 0.4 0 0.6-0.2 0.3-0.2 0.7-0.4 0.3-0.2 0.7-0.3 0.3-0.1 0.7-0.2 0.4-0.1 0.8 0 0.3 0 0.7 0 0.4 0.1 0.7 0.2 0.3 0.1 0.6 0.3 0.4 0.2 0.6 0.4 0.3 0.2 0.7 0.2 0.3-0.1 0.6-0.4 0.2-0.3 0.2-0.6-0.1-0.4-0.4-0.6-0.4-0.3-0.8-0.6-0.4-0.2-0.9-0.4-0.5-0.1-1-0.2-0.5-0.1-1-0.1-0.5 0-1 0-0.6 0.1-1.1 0.3-0.5 0.2-1 0.4-0.4 0.3-0.9 0.6z"/>
	<path id="Layer" fill-rule="evenodd" class="s0" d="m14.9 17.7q0.2 0.1 0.4 0.1 0.1 0 0.3 0 0.2-0.1 0.3-0.2 0.2-0.1 0.4-0.2 0.2-0.1 0.4-0.1 0.2 0 0.4 0.1 0.2 0.1 0.4 0.2 0.3 0.2 0.7 0.2 0.3-0.1 0.6-0.3 0.2-0.3 0.2-0.7-0.1-0.3-0.4-0.6-0.4-0.3-0.9-0.5-0.5-0.1-1-0.1-0.5-0.1-1 0.1-0.5 0.2-0.9 0.5-0.1 0.1-0.2 0.3-0.1 0.1-0.1 0.3 0 0.2 0 0.3 0.1 0.2 0.2 0.3 0.1 0.2 0.2 0.3zm-4-6.4q-0.3 0.2-0.3 0.6 0 0.4 0.2 0.6 0.2 0.3 0.6 0.3 0.3 0.1 0.6-0.1 1-0.9 2.3-1.3 1.2-0.5 2.5-0.5 1.3 0 2.5 0.4 1.3 0.5 2.3 1.3 0.3 0.2 0.6 0.2 0.4-0.1 0.6-0.3 0.3-0.3 0.2-0.7 0-0.3-0.3-0.6-1.2-1-2.8-1.6-1.5-0.5-3.1-0.5-1.6 0-3.2 0.6-1.5 0.5-2.7 1.6z"/>
	<path id="Layer" fill-rule="evenodd" class="s0" d="m26.7 9.4c0.4 0.3 0.7 0.8 0.7 1.3v8.1q0 0.5-0.2 1-0.2 0.5-0.6 0.9-0.4 0.3-0.9 0.5-0.5 0.2-1 0.2h-15.6q-0.6 0-1.1-0.2-0.4-0.2-0.8-0.5-0.4-0.4-0.6-0.9-0.2-0.5-0.2-1v-8.1q0-0.2 0-0.4 0.1-0.1 0.1-0.3 0.1-0.2 0.2-0.3 0.1-0.2 0.3-0.3l0.8-0.8v-4.1c0-1 0.8-1.8 1.8-1.8h1.2q0.3 0 0.6 0.2 0.3 0.1 0.6 0.3 0.2 0.3 0.4 0.6 0.1 0.3 0.1 0.6l3-2.6q0.2-0.2 0.5-0.4 0.3-0.1 0.7-0.1 0.3 0 0.6 0.1 0.3 0.1 0.5 0.4c0 0 8.9 7.6 8.9 7.6zm-18.5 1.3v8.1q0 0.1 0 0.3 0.1 0.2 0.2 0.3 0.2 0.1 0.3 0.2 0.2 0.1 0.4 0.1h15.6c0.5 0 0.9-0.4 0.9-0.9v-8.1l-8.9-7.6c0 0-8.5 7.6-8.5 7.6zm1.4-6.2v2.5l1.2-1v-1.5z"/>
	<path id="Layer" class="s0" d="m29 16.6q-0.4-0.1-0.5-0.5-0.2-0.3-0.1-0.6 0.2-0.4 0.5-0.6 0.3-0.1 0.7 0c2 0.7 3.1 2.5 3.1 4.5 0.1 1.9-0.8 4-2.8 5.4-3.6 2.7-8.4 3.1-10.9 3q-0.4-0.1-0.6-0.3-0.3-0.3-0.2-0.7 0-0.3 0.3-0.6 0.2-0.2 0.6-0.2c2.3 0.1 6.6-0.3 9.8-2.6 1.5-1.1 2.1-2.7 2.1-4-0.1-1.3-0.8-2.4-2-2.8zm-23.9-1.1q0 0.1 0 0.3 0 0.2-0.1 0.3-0.1 0.2-0.2 0.3-0.1 0.1-0.3 0.2c-1.2 0.4-1.9 1.5-2 2.8 0 1.3 0.6 2.9 2.1 4 2.7 1.9 6.1 2.5 8.5 2.6l-1.6-1.6q-0.2-0.2-0.3-0.6 0-0.4 0.3-0.6 0.3-0.3 0.7-0.3 0.3 0 0.6 0.3l2.3 2.3c0.7 0.7 0.7 1.9 0 2.6l-2.3 2.3q-0.3 0.3-0.6 0.3-0.4 0-0.7-0.3-0.2-0.3-0.2-0.6 0-0.4 0.2-0.6l1.4-1.4c-2.7-0.1-6.4-0.8-9.3-3-2-1.4-2.9-3.5-2.8-5.4 0-2 1.1-3.8 3.1-4.5q0.2-0.1 0.4 0 0.1 0 0.3 0 0.2 0.1 0.3 0.3 0.1 0.1 0.2 0.3z"/>
</svg>