<svg width="33" height="32" fill="none" xmlns="http://www.w3.org/2000/svg"><path d="M12.945 13.801a.892.892 0 001.102 1.402 4.461 4.461 0 012.839-.949 4.48 4.48 0 012.654.948.892.892 0 001.101-1.402 6.265 6.265 0 00-3.718-1.329 6.244 6.244 0 00-3.978 1.33z" fill="#191919"/><path d="M14.66 17.45a.892.892 0 01.156-1.251 3.091 3.091 0 013.811.018.892.892 0 01-1.108 1.398 1.308 1.308 0 00-1.608-.008.892.892 0 01-1.251-.157zM10.872 11.291a.892.892 0 001.154 1.36 7.433 7.433 0 019.54-.063.891.891 0 101.136-1.374 9.216 9.216 0 00-11.83.078z" fill="#191919"/><path fill-rule="evenodd" clip-rule="evenodd" d="M17.838 1.756a1.783 1.783 0 00-2.347.026l-2.957 2.643a1.783 1.783 0 00-1.78-1.684H9.63c-.984 0-1.783.799-1.783 1.783v4.091l-.858.768a1.783 1.783 0 00-.595 1.329v8.052a2.675 2.675 0 002.675 2.674H24.69a2.675 2.675 0 002.675-2.674v-8.04c0-.521-.229-1.017-.625-1.356L17.84 1.756zm-7.084 2.768v1.493L9.63 7.02V4.524h1.124zm5.926-1.413l8.902 7.613v8.04c0 .492-.399.891-.891.891H9.069a.892.892 0 01-.892-.891v-8.052l8.503-7.6z" fill="#191919"/><path d="M28.987 16.589a.892.892 0 11.589-1.684c2.023.707 3.105 2.516 3.17 4.456.066 1.933-.862 4.01-2.803 5.454-3.652 2.718-8.465 3.115-10.968 2.967a.892.892 0 01.106-1.78c2.309.137 6.627-.257 9.797-2.617 1.497-1.114 2.131-2.645 2.087-3.964-.045-1.313-.746-2.402-1.978-2.832zM5.06 15.453a.892.892 0 01-.547 1.136c-1.232.43-1.933 1.52-1.978 2.832-.044 1.32.59 2.85 2.086 3.964 2.635 1.96 6.062 2.564 8.47 2.634l-1.567-1.574a.892.892 0 111.264-1.258l2.345 2.355c.693.696.693 1.821 0 2.517l-2.345 2.356a.892.892 0 01-1.264-1.258l1.355-1.361c-2.637-.1-6.36-.777-9.322-2.98C1.616 23.37.687 21.294.753 19.36c.066-1.94 1.148-3.749 3.172-4.456a.892.892 0 011.135.548z" fill="#191919"/></svg>