<svg version="1.2" xmlns="http://www.w3.org/2000/svg" viewBox="0 0 33 32" width="33" height="32">
	<title>internet2Azul-svg</title>
	<defs>
		<clipPath clipPathUnits="userSpaceOnUse" id="cp1">
			<path d="m0.75 0h32v32h-32z"/>
		</clipPath>
	</defs>
	<style>
		.s0 { fill: #034a8c } 
	</style>
	<g id="Clip-Path" clip-path="url(#cp1)">
		<g id="Layer">
			<path id="Layer" class="s0" d="m2.5 2.7c0-0.5 0.4-0.9 0.9-0.9h8.7q0.4 0 0.6-0.3 0.3-0.3 0.3-0.6 0-0.4-0.3-0.6-0.2-0.3-0.6-0.3h-8.7q-0.5 0-1 0.2-0.5 0.2-0.9 0.6-0.3 0.4-0.5 0.8-0.2 0.5-0.2 1.1v22.2q0 0.5 0.2 1 0.2 0.5 0.5 0.9 0.4 0.3 0.9 0.6 0.5 0.2 1 0.2h26.7q0.5 0 1-0.2 0.5-0.3 0.9-0.6 0.3-0.4 0.5-0.9 0.2-0.5 0.3-1v-12.3q-0.1-0.4-0.3-0.6-0.3-0.3-0.6-0.3-0.4 0-0.7 0.3-0.2 0.2-0.2 0.6v12.3c0 0.5-0.4 0.9-0.9 0.9h-26.7q-0.2 0-0.3-0.1-0.2-0.1-0.3-0.2-0.1-0.1-0.2-0.3-0.1-0.1-0.1-0.3c0 0 0-22.2 0-22.2z"/>
			<path id="Layer" fill-rule="evenodd" class="s0" d="m18.8 9.6q-0.1-0.2-0.2-0.3 0-0.2 0-0.4 0-0.2 0.1-0.3 0-0.2 0.2-0.3c1.4-1.3 3.2-2 5.1-2 1.8 0.1 3.5 0.8 4.8 2q0.2 0.1 0.2 0.3 0.1 0.1 0.1 0.3 0 0.2 0 0.4-0.1 0.1-0.2 0.3-0.1 0.1-0.3 0.2-0.1 0-0.3 0.1-0.2 0-0.4-0.1-0.1-0.1-0.3-0.2c-1-0.9-2.3-1.4-3.6-1.5-1.4 0-2.8 0.5-3.9 1.5q-0.2 0.1-0.3 0.2-0.2 0.1-0.4 0.1-0.2-0.1-0.3-0.1-0.2-0.1-0.3-0.2zm3.1 1.9q0.3-0.1 0.6-0.3 0.3-0.1 0.7-0.1 0.3-0.1 0.6-0.1 0.4 0 0.7 0.1 0.3 0.1 0.6 0.2 0.3 0.1 0.5 0.3 0.3 0.2 0.5 0.4 0.2 0.1 0.3 0.3 0 0.1 0 0.3 0 0.2 0 0.3-0.1 0.2-0.2 0.3-0.1 0.2-0.3 0.2-0.1 0.1-0.3 0.1-0.2 0-0.3 0-0.2-0.1-0.3-0.2c-0.4-0.3-0.8-0.5-1.2-0.5-0.4 0-0.9 0.1-1.3 0.5q-0.1 0.1-0.3 0.2-0.1 0-0.3 0-0.2 0-0.3-0.1-0.2-0.1-0.3-0.2-0.1-0.1-0.2-0.3 0-0.2 0-0.3 0-0.2 0-0.4 0.1-0.1 0.3-0.3 0.2-0.2 0.5-0.4zm-5.8-5.8q-0.1-0.1-0.2-0.3 0-0.1 0-0.3 0-0.2 0-0.3 0.1-0.2 0.2-0.3c2.2-2.1 5-3.3 7.9-3.3 2.8 0.1 5.5 1.2 7.6 3.2q0.3 0.2 0.3 0.6 0 0.4-0.3 0.7-0.2 0.2-0.6 0.2-0.4 0-0.7-0.2c-1.8-1.7-4-2.7-6.3-2.7-2.4 0-4.8 0.9-6.6 2.8q-0.2 0.1-0.3 0.1-0.2 0.1-0.4 0.1-0.1 0-0.3-0.1-0.2 0-0.3-0.2zm6.9 24.5q0.3 0 0.6 0.3 0.3 0.2 0.3 0.6 0 0.4-0.3 0.6-0.3 0.3-0.6 0.3h-12.5q-0.3 0-0.6-0.3-0.3-0.2-0.3-0.6 0-0.4 0.3-0.6 0.3-0.3 0.6-0.3z"/>
		</g>
	</g>
</svg>